{
	"asset":{
		"version":"2.0",
		"generator":"Houdini GLTF 2.0 Exporter"
	},
	"accessors":[
		{
			"bufferView":0,
			"componentType":5125,
			"count":1802730,
			"type":"SCALAR",
			"min":[0
			],
			"max":[374557
			]
		},
		{
			"bufferView":1,
			"componentType":5126,
			"count":374558,
			"type":"VEC3",
			"min":[-64,-1.98329329,-64
			],
			"max":[64,3.76418209,64
			]
		},
		{
			"bufferView":2,
			"componentType":5126,
			"count":374558,
			"type":"VEC4",
			"min":[-0.99984324,-0.999993742,-0.999849737,1
			],
			"max":[1,0.999998927,0.999822736,1
			]
		},
		{
			"bufferView":3,
			"componentType":5126,
			"count":374558,
			"type":"VEC2",
			"min":[0,0
			],
			"max":[1,1
			]
		},
		{
			"bufferView":4,
			"componentType":5126,
			"count":374558,
			"type":"VEC3",
			"min":[-1,-1,-1
			],
			"max":[1,1,1
			]
		},
		{
			"bufferView":5,
			"componentType":5125,
			"count":374558,
			"type":"SCALAR",
			"min":[0
			],
			"max":[9
			]
		},
		{
			"bufferView":6,
			"componentType":5126,
			"count":374558,
			"type":"VEC3",
			"min":[0,0.0666820556,0
			],
			"max":[0.629000008,0.522000015,0.314500004
			]
		}
	],
	"buffers":[
		{
			"uri":"world_data.bin",
			"byteLength":31182632,
			"name":"main_buffer"
		}
	],
	"bufferViews":[
		{
			"buffer":0,
			"byteLength":7210920,
			"target":34963
		},
		{
			"buffer":0,
			"byteOffset":7210920,
			"byteLength":4494696,
			"target":34962
		},
		{
			"buffer":0,
			"byteOffset":11705616,
			"byteLength":5992928,
			"target":34962
		},
		{
			"buffer":0,
			"byteOffset":17698544,
			"byteLength":2996464,
			"target":34962
		},
		{
			"buffer":0,
			"byteOffset":20695008,
			"byteLength":4494696,
			"target":34962
		},
		{
			"buffer":0,
			"byteOffset":25189704,
			"byteLength":1498232,
			"target":34962
		},
		{
			"buffer":0,
			"byteOffset":26687936,
			"byteLength":4494696,
			"target":34962
		}
	],
	"nodes":[
		{
			"name":"world",
			"mesh":0
		}
	],
	"meshes":[
		{
			"primitives":[
				{
					"attributes":{
						"POSITION":1,
						"COLOR_0":6,
						"TANGENT":2,
						"NORMAL":4,
						"TEXCOORD_0":3,
						"_class":5
					},
					"indices":0
				}
			],
			"name":"uvtexture1"
		}
	],
	"scenes":[
		{
			"nodes":[0
			]
		}
	],
	"scene":0
}
